<svg xmlns="http://www.w3.org/2000/svg" width="1777.846" height="1780.167" viewBox="0 0 1777.846 1780.167">
    <defs>
        <style>
            .prefix__cls-2{fill:#1d4283}.prefix__cls-3{fill:#4b82bc}
        </style>
    </defs>
    <g id="prefix__watermark" style="opacity:.03">
        <path id="prefix__Path_6103" d="M293.475 451.793c.157-2.53.387-5.08.387-7.683.021-2.582-.23-5.132-.355-7.652l-.962-9.491a126.667 126.667 0 00-125.5-109.674l-2.164.01.126-.115a126.783 126.783 0 11128.876-126.721 126.8 126.8 0 10253.6-.031 126.864 126.864 0 01253.728 0v.188a126.817 126.817 0 00253.633-.167 126.832 126.832 0 11128.865 126.723l.115.115h-2.153A126.764 126.764 0 001056.14 426.99l-.92 9.439c-.115 2.5-.355 4.955-.376 7.526l.021.146c0 1.254-.146 2.435-.188 3.669l.167-.031.021-3.638c-.042 2.592.272 5.153.387 7.693l.868 9.46a126.8 126.8 0 00125.594 109.684h2.111l-.115.1a126.789 126.789 0 11-128.886 126.712 126.817 126.817 0 10-253.633.031 126.838 126.838 0 11-128.854-126.749l-.1-.1 2.133.021a126.761 126.761 0 00125.547-109.689l.878-9.47c.146-2.571.418-5.08.4-7.693l.021 3.659.157.031c0-1.223-.178-2.467-.178-3.69v-.052c0-2.582-.251-5.122-.4-7.62l-.909-9.471a126.671 126.671 0 00-251.051.031l-.91 9.439c-.146 2.519-.387 5.017-.408 7.6v.073l-.031.01c0 .481-.031.962-.031 1.443-.052 3.836-.209 7.683-.575 11.436-.209 1.965-.606 3.92-.9 5.843-.324 2.216-.575 4.463-.993 6.638-.491 2.362-1.171 4.631-1.746 6.951-.47 1.7-.847 3.45-1.348 5.143-.794 2.54-1.756 4.965-2.7 7.432-.5 1.38-.962 2.76-1.484 4.108-1.16 2.728-2.509 5.31-3.784 7.955-.523.983-.972 2.017-1.463 3-1.526 2.833-3.23 5.551-4.944 8.237-.429.69-.836 1.432-1.3 2.112-1.955 2.937-4.108 5.77-6.272 8.53-.3.387-.533.763-.857 1.108-2.394 3-4.965 5.822-7.62 8.551l-.355.4a126.49 126.49 0 01-88.057 37.85l.021.1-2.394.01a126.777 126.777 0 00-126.801 126.806 126.848 126.848 0 01-253.7-.021c0-69.314 55.715-125.573 124.82-126.7l-.1-.094 2.143-.021c64.224.01 117.127-47.781 125.531-109.663zm761.35-11.331l-.146-.011c.021 1.1.167 2.164.188 3.293zm-253.633 3.481c.021-.606.073-1.192.1-1.8.052-.554.073-1.139.073-1.7l-.157.011zm-507.162 3.826c0-1.118-.115-2.216-.146-3.355l-.021-.3.021 3.617zm-.167-3.659l-.042-.031zm-.042-.031l.063-.115c0-1.192.146-2.342.146-3.512l-.146.011zm253.7-3.627h-.157c.031.878.042 1.735.094 2.582 0 .3.031.606.031.92z" class="prefix__cls-2" data-name="Path 6103" transform="translate(214.567 446.064)"/>
        <path id="prefix__Path_6104" d="M101.788 256.693a127.358 127.358 0 11180.117-.021 127.36 127.36 0 01-180.117.021" class="prefix__cls-3" data-name="Path 6104" transform="translate(950.369 215.703)"/>
        <path id="prefix__Path_6105" d="M125.965 232.275a127.369 127.369 0 11180.148 0 127.385 127.385 0 01-180.148 0" class="prefix__cls-2" data-name="Path 6105" transform="translate(672.882 -14.85)"/>
        <path id="prefix__Path_6106" d="M330.6 76.549a127.388 127.388 0 11-180.127 0 127.372 127.372 0 01180.127 0" class="prefix__cls-3" data-name="Path 6106" transform="translate(392.493 215.709)"/>
        <path id="prefix__Path_6107" d="M378.974 124.879a127.38 127.38 0 11-180.138 0 127.4 127.4 0 01180.138 0" class="prefix__cls-3" data-name="Path 6107" transform="translate(-161.526 672.608)"/>
        <path id="prefix__Path_6108" d="M330.523 173.692a127.384 127.384 0 11-180.117 0 127.347 127.347 0 01180.117 0" class="prefix__cls-3" data-name="Path 6108" transform="translate(393.261 1134.156)"/>
        <path id="prefix__Path_6109" d="M306.107 198.079a127.38 127.38 0 11-180.138 0 127.366 127.366 0 01180.138 0" class="prefix__cls-2" data-name="Path 6109" transform="translate(672.878 1364.647)"/>
        <path id="prefix__Path_6110" d="M53.119 305a127.366 127.366 0 11180.138 0 127.379 127.379 0 01-180.138 0" class="prefix__cls-3" data-name="Path 6110" transform="translate(1507.287 672.614)"/>
        <path id="prefix__Path_6111" d="M281.853 173.724a127.377 127.377 0 11-180.138.021 127.391 127.391 0 01180.138-.021" class="prefix__cls-3" data-name="Path 6111" transform="translate(950.839 1134.26)"/>
    </g>
</svg>
