<svg xmlns="http://www.w3.org/2000/svg" width="1163.648" height="1165.167" viewBox="0 0 1163.648 1165.167">
    <defs>
        <style>
            .prefix__cls-2{fill:#1d4283}.prefix__cls-3{fill:#4b82bc}
        </style>
    </defs>
    <g id="prefix__watermark" style="opacity:.04">
        <path id="prefix__Path_6103" d="M205.971 317.686c.1-1.656.253-3.325.253-5.029s-.151-3.359-.232-5.008l-.63-6.212a82.907 82.907 0 00-82.143-71.784l-1.416.007.082-.075a82.983 82.983 0 1184.353-82.943 82.995 82.995 0 10165.989-.021 83.036 83.036 0 01166.072 0v.123a83 83 0 00166.01-.109 83.015 83.015 0 1184.346 82.943l.075.075h-1.409a82.971 82.971 0 00-82.163 71.8l-.6 6.178c-.075 1.635-.233 3.243-.246 4.926l.014.1c0 .821-.1 1.594-.123 2.4l.11-.02.014-2.381c-.027 1.7.178 3.373.253 5.036l.568 6.192a82.99 82.99 0 0082.2 71.791h1.382l-.075.069a82.987 82.987 0 11-84.36 82.936 83 83 0 10-166.01.021 83.019 83.019 0 11-84.339-82.964l-.068-.068 1.4.014a82.969 82.969 0 0082.177-71.791l.575-6.2c.1-1.683.274-3.325.26-5.036l.014 2.395.1.021c0-.8-.116-1.615-.116-2.415v-.034c0-1.69-.164-3.352-.26-4.988l-.6-6.2a82.909 82.909 0 00-164.32.021l-.6 6.178c-.1 1.649-.253 3.284-.267 4.974v.048l-.021.007c0 .315-.02.629-.02.944-.034 2.511-.137 5.029-.376 7.485-.137 1.286-.4 2.566-.588 3.825-.212 1.45-.376 2.921-.65 4.345-.322 1.546-.766 3.031-1.143 4.55-.308 1.115-.554 2.258-.882 3.366-.52 1.663-1.149 3.25-1.765 4.865-.328.9-.629 1.806-.972 2.689-.76 1.786-1.642 3.476-2.477 5.207-.342.643-.636 1.32-.958 1.964-1 1.854-2.114 3.633-3.236 5.391-.281.451-.547.937-.848 1.382-1.279 1.922-2.689 3.777-4.105 5.583-.2.253-.349.5-.561.725-1.567 1.964-3.25 3.811-4.988 5.6l-.232.26a82.791 82.791 0 01-57.636 24.774l.014.068-1.567.007a82.979 82.979 0 00-83 83 83.025 83.025 0 11-84.353-82.943l-.068-.062 1.4-.014a82.965 82.965 0 0082.163-71.777zm498.329-7.417l-.1-.007c.014.718.11 1.416.123 2.155zm-166.01 2.278c.014-.4.048-.78.069-1.177.034-.363.048-.746.048-1.115l-.1.007zm-331.951 2.5c0-.732-.075-1.45-.1-2.2l-.014-.2.014 2.367zm-.11-2.395l-.027-.021zm-.027-.021l.041-.075c0-.78.1-1.533.1-2.3l-.1.007zm166.051-2.374h-.1c.021.575.027 1.136.062 1.69 0 .2.02.4.02.6z" class="prefix__cls-2" data-name="Path 6103" transform="translate(126.557 269.986)"/>
        <path id="prefix__Path_6104" d="M88.886 181.569a83.359 83.359 0 11117.891-.014 83.36 83.36 0 01-117.891.014" class="prefix__cls-3" data-name="Path 6104" transform="translate(599.779 127.628)"/>
        <path id="prefix__Path_6105" d="M113.081 157.161a83.367 83.367 0 11117.912 0 83.377 83.377 0 01-117.912 0" class="prefix__cls-2" data-name="Path 6105" transform="translate(409.786 -14.85)"/>
        <path id="prefix__Path_6106" d="M255.478 63.66a83.379 83.379 0 11-117.9 0 83.368 83.368 0 01117.9 0" class="prefix__cls-3" data-name="Path 6106" transform="translate(217.807 127.631)"/>
        <path id="prefix__Path_6107" d="M303.852 111.991a83.374 83.374 0 11-117.905 0 83.385 83.385 0 01117.905 0" class="prefix__cls-3" data-name="Path 6107" transform="translate(-161.526 409.986)"/>
        <path id="prefix__Path_6108" d="M255.4 160.808a83.376 83.376 0 11-117.891 0 83.352 83.352 0 01117.891 0" class="prefix__cls-3" data-name="Path 6108" transform="translate(218.332 695.214)"/>
        <path id="prefix__Path_6109" d="M230.989 185.193a83.374 83.374 0 11-117.905 0 83.364 83.364 0 01117.905 0" class="prefix__cls-2" data-name="Path 6109" transform="translate(409.784 837.653)"/>
        <path id="prefix__Path_6110" d="M40.232 229.885a83.364 83.364 0 11117.905 0 83.373 83.373 0 01-117.905 0" class="prefix__cls-3" data-name="Path 6110" transform="translate(981.095 409.99)"/>
        <path id="prefix__Path_6111" d="M206.729 160.833a83.371 83.371 0 11-117.905.014 83.381 83.381 0 01117.905-.014" class="prefix__cls-3" data-name="Path 6111" transform="translate(600.101 695.278)"/>
    </g>
</svg>
